<?xml version="1.0" standalone="no"?><!DOCTYPE svg PUBLIC "-//W3C//DTD SVG 1.1//EN" "http://www.w3.org/Graphics/SVG/1.1/DTD/svg11.dtd">
<svg t="1612106715953" class="icon" viewBox="0 0 1024 1024" version="1.1" xmlns="http://www.w3.org/2000/svg" p-id="21679" xmlns:xlink="http://www.w3.org/1999/xlink" width="50px" height="50px"><defs><style type="text/css"></style></defs><path d="M390.948571 428.544l-6.985142-3.876571a24.502857 24.502857 0 0 1-7.204572-10.459429 49.078857 49.078857 0 0 1 8.045714-50.651429c9.179429-9.435429 62.902857-67.510857 48.859429-127.744-8.374857-35.766857-37.668571-62.281143-87.222857-78.994285a184.027429 184.027429 0 0 0-129.536 4.242285A229.851429 229.851429 0 0 0 74.788571 352.914286c-4.534857 70.692571-5.851429 245.394286 81.700572 342.089143a196.132571 196.132571 0 0 0 145.261714 64.987428h8.704a177.371429 177.371429 0 0 0 126.061714-53.833143v182.784a25.234286 25.234286 0 0 0 25.088 25.307429 25.234286 25.234286 0 0 0 25.124572-25.307429v-304.822857a156.050286 156.050286 0 0 0-95.744-155.611428z m44.544 164.205714c-18.395429 119.332571-119.332571 118.162286-131.547428 116.662857a146.249143 146.249143 0 0 1-110.299429-48.457142c-76.690286-84.370286-71.972571-254.683429-68.644571-303.798858 0.146286-3.108571 0.512-6.217143 1.024-9.289142a180.809143 180.809143 0 0 1 110.445714-140.251429A132.864 132.864 0 0 1 330.715429 204.8c31.634286 10.605714 50.212571 24.795429 54.089142 42.349714 6.838857 29.366857-24.612571 69.376-36.205714 81.005715l-1.133714 1.353142a96.877714 96.877714 0 0 0-23.954286 69.046858 195.145143 195.145143 0 0 0-102.253714-7.094858 25.490286 25.490286 0 0 0-6.838857 46.336 24.758857 24.758857 0 0 0 19.017143 2.779429c42.715429-10.605714 100.461714 13.824 125.732571 27.501714l2.194286 1.353143 3.657143 2.011429h0.841142c1.353143 0 2.523429 1.536 3.876572 2.048a104.155429 104.155429 0 0 1 66.925714 101.266285v3.035429c0 5.010286-0.365714 10.057143-1.170286 14.994286z m513.718858-239.798857a229.851429 229.851429 0 0 0-142.262858-192.585143 182.710857 182.710857 0 0 0-129.572571-4.205714c-50.212571 16.859429-78.665143 43.190857-87.04 78.994286-14.043429 60.233143 39.68 118.125714 48.859429 127.744 11.958857 14.006857 14.994286 33.645714 7.899428 50.614857a22.784 22.784 0 0 1-7.058286 10.496l-7.021714 3.876571a156.416 156.416 0 0 0-95.890286 156.452572v303.798857a25.234286 25.234286 0 0 0 25.088 25.307428 25.234286 25.234286 0 0 0 25.124572-25.307428v-181.613714a176.566857 176.566857 0 0 0 125.513143 53.833142h8.411428a196.608 196.608 0 0 0 146.432-65.316571c87.405714-96.694857 86.052571-271.36 81.517715-342.089143z m-118.857143 308.004572a147.565714 147.565714 0 0 1-111.140572 48.64c-11.702857 0-112.274286 2.486857-130.706285-118.162286a85.065143 85.065143 0 0 1-1.170286-12.836572v-6.4a103.936 103.936 0 0 1 66.925714-98.742857c1.353143 0 2.523429-1.536 3.693714-2.048h0.841143l3.657143-2.194285 2.706286-1.353143c25.453714-13.824 83.675429-38.107429 125.366857-27.501715a24.758857 24.758857 0 0 0 19.017143-2.779428 25.490286 25.490286 0 0 0-6.838857-46.336 195.145143 195.145143 0 0 0-102.4 7.277714 97.718857 97.718857 0 0 0-23.917715-69.851428l-1.170285-1.389715c-11.556571-11.483429-43.044571-50.614857-36.205715-81.005714 4.022857-16.859429 22.308571-31.744 54.125715-42.349714a136.557714 136.557714 0 0 1 43.812571-7.277715c17.261714 0 34.340571 3.437714 50.212572 10.130286a180.809143 180.809143 0 0 1 111.835428 150.052572c3.328 49.444571 8.045714 219.428571-68.644571 304.128z" fill="#0074FE" p-id="21680"></path></svg>