<svg height="368pt" viewBox="0 0 368 368" width="368pt" xmlns="http://www.w3.org/2000/svg">
<path d="m184 296c17.121094 0 33.441406-3.839844 48-10.800781 37.839844-18 64-56.558594 64-101.199219 0-17.121094-3.839844-33.441406-10.800781-48-18-37.839844-56.558594-64-101.199219-64-17.121094 0-33.441406 3.839844-48 10.800781-37.839844 18-64 56.558594-64 101.199219 0 17.121094 3.839844 33.441406 10.800781 48 18 37.839844 56.558594 64 101.199219 64zm0-160c26.480469 0 48 21.519531 48 48s-21.519531 48-48 48-48-21.519531-48-48 21.519531-48 48-48zm0 0" fill="#cce4ff"/>
<g fill="#007aff">
<path d="m184 0c-101.457031 0-184 82.542969-184 184s82.542969 184 184 184 184-82.542969 184-184-82.542969-184-184-184zm0 352c-92.640625 0-168-75.359375-168-168s75.359375-168 168-168 168 75.359375 168 168-75.359375 168-168 168zm0 0"/>
<path d="m292.527344 132.832031c-.039063-.089843-.0625-.175781-.113282-.265625-19.804687-41.65625-62.367187-68.566406-108.414062-68.566406-17.921875 0-35.089844 3.855469-51.039062 11.414062-.050782.019532-.089844.035157-.128907.058594-.089843.039063-.175781.0625-.265625.113282-41.65625 19.804687-68.566406 62.367187-68.566406 108.414062 0 17.921875 3.855469 35.089844 11.414062 51.039062.019532.050782.035157.089844.058594.128907.039063.089843.0625.175781.113282.265625 19.804687 41.65625 62.367187 68.566406 108.414062 68.566406 17.910156 0 35.078125-3.855469 51.039062-11.414062.050782-.019532.089844-.035157.128907-.058594.089843-.039063.175781-.0625.265625-.113282 41.65625-19.804687 68.566406-62.367187 68.566406-108.414062 0-17.921875-3.855469-35.089844-11.414062-51.039062-.019532-.050782-.035157-.089844-.058594-.128907zm-20.976563-4.832031h-87.550781c-15.664062 0-29.824219 6.480469-40 16.878906v-56.734375c12.625-5.304687 26.023438-8.144531 40-8.144531 35.511719 0 68.585938 18.496094 87.550781 48zm-47.550781 56c0 22.054688-17.945312 40-40 40s-40-17.945312-40-40 17.945312-40 40-40 40 17.945312 40 40zm-96-87.550781v87.550781c0 15.664062 6.480469 29.824219 16.878906 40h-56.734375c-5.304687-12.625-8.144531-26.023438-8.144531-40 0-35.511719 18.496094-68.585938 48-87.550781zm-31.550781 143.550781h87.550781c15.664062 0 29.824219-6.480469 40-16.878906v56.734375c-12.625 5.304687-26.023438 8.144531-40 8.144531-35.511719 0-68.585938-18.496094-87.550781-48zm143.550781 31.558594v-87.558594c0-15.664062-6.480469-29.824219-16.878906-40h56.734375c5.304687 12.625 8.144531 26.023438 8.144531 40 0 35.511719-18.496094 68.59375-48 87.558594zm0 0"/>
</g></svg>