<?xml version="1.0" standalone="no"?><!DOCTYPE svg PUBLIC "-//W3C//DTD SVG 1.1//EN" "http://www.w3.org/Graphics/SVG/1.1/DTD/svg11.dtd"><svg t="1612106773260" class="icon" viewBox="0 0 1024 1024" version="1.1" xmlns="http://www.w3.org/2000/svg" p-id="21893" xmlns:xlink="http://www.w3.org/1999/xlink" width="200" height="200"><defs><style type="text/css"></style></defs><path d="M512 512m-501.76 0a501.76 501.76 0 1 0 1003.52 0 501.76 501.76 0 1 0-1003.52 0Z" fill="#8CEEF9" p-id="21894"></path><path d="M585.728 428.8512l-30.72 62.0544-199.68-98.9184c-18.2272-9.0112-33.9968-22.528-45.6704-39.3216l-0.2048-0.2048c-9.8304-14.1312-0.4096-33.5872 16.7936-34.6112 20.8896-1.024 41.7792 3.2768 60.6208 12.4928l198.8608 98.5088z" fill="#FFECE9" p-id="21895"></path><path d="M555.008 501.1456c-1.6384 0-3.072-0.4096-4.5056-1.024l-199.68-98.9184c-19.8656-9.8304-36.864-24.576-49.5616-42.5984l-0.2048-0.2048c-6.7584-9.6256-7.7824-21.9136-2.6624-32.5632s15.36-17.408 27.2384-18.0224c22.7328-1.2288 45.4656 3.4816 65.7408 13.5168l198.8608 98.5088c5.12 2.4576 7.168 8.6016 4.7104 13.7216l-30.72 62.0544c-1.2288 2.4576-3.2768 4.3008-5.9392 5.12-1.024 0.2048-2.048 0.4096-3.2768 0.4096z m-222.4128-173.056c-2.048 0-3.8912 0-5.9392 0.2048-6.144 0.4096-9.0112 4.7104-9.8304 6.5536s-2.6624 6.7584 1.024 11.8784l0.2048 0.2048c10.6496 15.36 25.1904 27.648 41.984 36.0448l190.464 94.208 21.504-43.6224-189.8496-93.7984c-15.36-7.7824-32.3584-11.6736-49.5616-11.6736z" fill="#1C1D21" p-id="21896"></path><path d="M512 1024c-136.8064 0-265.4208-53.248-362.0864-149.9136C53.248 777.4208 0 648.8064 0 512S53.248 246.5792 149.9136 149.9136C246.5792 53.248 375.1936 0 512 0s265.4208 53.248 362.0864 149.9136C970.752 246.5792 1024 375.1936 1024 512s-53.248 265.4208-149.9136 362.0864C777.4208 970.752 648.8064 1024 512 1024z m0-1003.52C241.0496 20.48 20.48 241.0496 20.48 512s220.5696 491.52 491.52 491.52 491.52-220.5696 491.52-491.52S782.9504 20.48 512 20.48z" fill="#1C1D21" p-id="21897"></path><path d="M608.0512 446.2592L555.008 490.9056l-143.36-170.5984c-13.1072-15.5648-22.1184-34.2016-26.2144-54.272v-0.4096c-3.4816-16.7936 13.1072-30.9248 29.2864-24.9856 19.6608 7.3728 37.0688 19.6608 50.5856 35.6352l142.7456 169.984z" fill="#FFECE9" p-id="21898"></path><path d="M11.264 481.4848c-0.6144 10.24-1.024 20.2752-1.024 30.5152 0 277.0944 224.6656 501.76 501.76 501.76s501.76-224.6656 501.76-501.76c0-10.24-0.4096-20.2752-1.024-30.5152H11.264z" fill="#FFC5B3" p-id="21899"></path><path d="M555.008 501.1456h-0.8192c-2.6624-0.2048-5.12-1.4336-6.9632-3.6864l-143.5648-170.3936c-14.1312-16.7936-23.9616-37.2736-28.4672-58.7776v-0.4096c-2.4576-11.6736 1.6384-23.1424 10.6496-30.9248 9.0112-7.7824 21.0944-9.8304 32.1536-5.7344 21.2992 7.9872 40.1408 21.2992 54.8864 38.7072 3.6864 4.3008 3.072 10.8544-1.2288 14.336-4.3008 3.6864-10.8544 3.072-14.336-1.2288-12.288-14.7456-28.2624-26.0096-46.2848-32.768-5.7344-2.2528-10.0352 0.6144-11.6736 2.048-1.6384 1.4336-5.12 5.12-3.8912 11.264v0.4096c3.6864 18.2272 12.0832 35.4304 23.9616 49.7664l136.8064 162.6112 37.2736-31.3344-82.1248-97.6896c-3.6864-4.3008-3.072-10.8544 1.2288-14.336 4.3008-3.6864 10.8544-3.072 14.336 1.2288l88.6784 105.472c3.6864 4.3008 3.072 10.8544-1.2288 14.336l-52.8384 44.4416c-1.8432 1.8432-4.096 2.6624-6.5536 2.6624z" fill="#1C1D21" p-id="21900"></path><path d="M496.4352 323.9936c-2.8672 0-5.7344-1.2288-7.7824-3.6864l-6.144-7.3728c-3.6864-4.3008-3.072-10.8544 1.2288-14.336 4.3008-3.6864 10.8544-3.072 14.336 1.2288l6.144 7.3728c3.6864 4.3008 3.072 10.8544-1.2288 14.336-1.8432 1.6384-4.3008 2.4576-6.5536 2.4576zM512 1024c-136.8064 0-265.4208-53.248-362.0864-149.9136C53.248 777.4208 0 648.8064 0 512c0-10.0352 0.4096-20.2752 1.024-31.1296 0.4096-5.3248 4.7104-9.6256 10.24-9.6256h1001.6768c5.3248 0 9.8304 4.3008 10.24 9.6256 0.6144 10.8544 1.024 20.8896 1.024 31.1296 0 136.8064-53.248 265.4208-149.9136 362.0864C777.4208 970.752 648.8064 1024 512 1024zM20.8896 491.7248c-0.2048 6.9632-0.4096 13.5168-0.4096 20.2752 0 270.9504 220.5696 491.52 491.52 491.52s491.52-220.5696 491.52-491.52c0-6.5536-0.2048-13.312-0.4096-20.2752H20.8896z" fill="#1C1D21" p-id="21901"></path><path d="M344.6784 390.3488l-90.3168-17.8176c-6.3488-1.2288-12.4928 2.048-15.1552 7.7824-3.2768 6.9632-0.2048 15.1552 6.7584 18.432l11.8784 5.5296c38.5024 18.0224 71.68 46.2848 94.0032 82.3296 12.9024 20.8896 31.9488 38.5024 55.7056 49.5616 27.648 12.9024 57.7536 15.36 85.1968 8.8064 29.0816-6.9632 59.8016-3.072 86.8352 9.4208l13.7216 6.3488 20.8896-44.8512-269.5168-125.5424z" fill="#FF3E63" p-id="21902"></path><path d="M721.168302 616.096649a37.6832 37.6832 0 1 0 31.881017-68.291251 37.6832 37.6832 0 1 0-31.881017 68.291251Z" fill="#C67552" p-id="21903"></path><path d="M737.0752 629.76c-6.7584 0-13.7216-1.4336-20.0704-4.5056-23.9616-11.0592-34.2016-39.7312-23.1424-63.488s39.7312-34.2016 63.488-23.1424c23.9616 11.0592 34.2016 39.7312 23.1424 63.488-8.192 17.408-25.3952 27.648-43.4176 27.648z m0-75.3664c-10.24 0-20.2752 5.9392-24.7808 15.7696-6.3488 13.7216-0.4096 29.9008 13.312 36.4544 13.7216 6.3488 29.9008 0.4096 36.4544-13.312 6.3488-13.7216 0.4096-29.9008-13.312-36.4544-3.8912-1.4336-7.7824-2.4576-11.6736-2.4576z" fill="#1C1D21" p-id="21904"></path><path d="M780.4928 679.936c-3.6864 0-7.3728-2.048-9.0112-5.5296L743.424 620.7488c-2.6624-5.12-0.6144-11.264 4.3008-13.7216 5.12-2.6624 11.264-0.6144 13.7216 4.3008l27.8528 53.6576c2.6624 5.12 0.6144 11.264-4.3008 13.7216-1.4336 0.8192-3.072 1.2288-4.5056 1.2288zM661.7088 679.936h-15.36c-16.384 0-30.9248-9.8304-36.864-24.9856l-44.032-108.7488c-2.048-5.3248 0.4096-11.264 5.7344-13.312 5.3248-2.048 11.264 0.4096 13.312 5.7344l44.032 108.7488c3.072 7.3728 10.0352 12.0832 18.0224 12.0832h15.36c5.7344 0 10.24 4.5056 10.24 10.24s-4.7104 10.24-10.4448 10.24z" fill="#1C1D21" p-id="21905"></path><path d="M432.128 555.4176c-2.048 0-3.8912-0.6144-5.7344-1.8432-4.7104-3.072-5.9392-9.6256-2.8672-14.1312l58.1632-86.4256c3.072-4.7104 9.4208-5.9392 14.1312-2.8672 4.7104 3.072 5.9392 9.6256 2.8672 14.1312L440.5248 550.912c-2.048 2.8672-5.12 4.5056-8.3968 4.5056zM375.1936 525.9264c-2.048 0-3.8912-0.6144-5.7344-1.8432-4.7104-3.072-5.9392-9.6256-2.8672-14.1312l57.5488-85.1968c3.072-4.7104 9.6256-5.9392 14.1312-2.8672 4.7104 3.072 5.9392 9.6256 2.8672 14.1312l-57.5488 85.1968c-1.8432 3.072-5.12 4.7104-8.3968 4.7104zM511.1808 551.3216c-2.048 0-3.8912-0.6144-5.7344-1.8432-4.7104-3.072-5.9392-9.6256-2.8672-14.1312l39.7312-58.9824c3.072-4.7104 9.6256-5.9392 14.1312-2.8672 4.7104 3.072 5.9392 9.6256 2.8672 14.1312L519.7824 546.816c-2.048 3.072-5.12 4.5056-8.6016 4.5056zM334.2336 473.088c-2.048 0-3.8912-0.6144-5.7344-1.8432-4.7104-3.072-5.9392-9.6256-2.8672-14.1312l39.5264-58.5728c3.072-4.7104 9.6256-5.9392 14.1312-2.8672 4.7104 3.072 5.9392 9.6256 2.8672 14.1312l-39.5264 58.5728c-1.8432 3.2768-5.12 4.7104-8.3968 4.7104zM286.3104 430.6944c-2.048 0-3.8912-0.6144-5.7344-1.8432-4.7104-3.072-5.9392-9.6256-2.8672-14.1312l24.3712-36.2496c3.072-4.7104 9.4208-5.9392 14.1312-2.8672 4.7104 3.072 5.9392 9.6256 2.8672 14.1312L294.912 426.1888c-2.048 2.8672-5.3248 4.5056-8.6016 4.5056z" fill="#FFAEC3" p-id="21906"></path><path d="M593.3056 571.1872c-1.4336 0-2.8672-0.4096-4.3008-1.024l-13.7216-6.3488c-25.6-11.8784-54.0672-14.9504-80.0768-8.8064-31.1296 7.3728-62.8736 4.096-91.9552-9.4208-24.9856-11.6736-45.8752-30.1056-60.2112-53.4528-20.8896-33.792-51.8144-60.8256-89.4976-78.4384l-11.8784-5.5296c-12.0832-5.5296-17.2032-20.0704-11.6736-31.9488 4.7104-10.0352 15.5648-15.5648 26.4192-13.5168l90.3168 17.8176c0.8192 0.2048 1.6384 0.4096 2.4576 0.8192L618.496 506.88c5.12 2.4576 7.3728 8.3968 4.9152 13.5168L602.5216 565.248c-1.8432 3.8912-5.5296 5.9392-9.216 5.9392z m-71.4752-39.7312c20.8896 0 42.1888 4.7104 61.8496 13.9264l4.5056 2.048 12.288-26.2144-259.072-121.0368-89.088-17.6128c-1.6384-0.4096-3.2768 0.4096-4.096 2.048-0.8192 1.8432 0 3.8912 1.8432 4.9152l11.8784 5.5296c41.3696 19.2512 75.3664 49.152 98.304 86.4256 12.288 19.8656 30.1056 35.84 51.4048 45.6704 24.7808 11.6736 52.0192 14.336 78.6432 7.9872 10.24-2.4576 20.8896-3.6864 31.5392-3.6864z" fill="#1C1D21" p-id="21907"></path><path d="M317.0304 679.936h-35.0208c-5.7344 0-10.24-4.5056-10.24-10.24s4.5056-10.24 10.24-10.24h35.0208c16.1792 0 31.1296-7.9872 40.3456-21.504l93.5936-139.4688c3.2768-4.9152 8.8064-8.192 14.7456-8.8064 5.9392-0.6144 11.8784 1.6384 16.1792 5.9392l38.0928 39.1168c3.8912 4.096 3.8912 10.4448-0.2048 14.5408-4.096 3.8912-10.4448 3.8912-14.5408-0.2048l-37.6832-38.5024-93.3888 138.8544c-12.6976 19.2512-34.2016 30.5152-57.1392 30.5152zM180.224 679.936H145.2032c-5.7344 0-10.24-4.5056-10.24-10.24s4.5056-10.24 10.24-10.24H180.224c16.1792 0 31.1296-7.9872 40.3456-21.504l114.4832-168.96c3.072-4.7104 9.6256-5.9392 14.1312-2.6624 4.7104 3.072 5.9392 9.6256 2.6624 14.1312L237.568 649.4208c-12.9024 19.2512-34.2016 30.5152-57.344 30.5152z" fill="#1C1D21" p-id="21908"></path><path d="M552.5504 486.4l24.576 57.7536c3.072 7.3728 9.0112 13.5168 16.1792 16.7936l28.672 13.312c7.3728 3.4816 15.5648 4.096 23.3472 1.6384l57.1392-17.408c14.1312-4.3008 23.552-17.408 23.1424-32.1536-1.024-37.2736-22.7328-72.4992-58.7776-89.4976a101.7856 101.7856 0 0 0-104.2432 10.8544c-11.8784 9.0112-15.9744 24.9856-10.0352 38.7072z" fill="#C67552" p-id="21909"></path><path d="M621.9776 574.464c7.3728 3.4816 15.5648 4.096 23.3472 1.6384l25.8048-7.9872c-6.5536-20.6848-21.504-38.7072-42.8032-48.5376-20.48-9.6256-43.2128-9.8304-62.8736-2.2528l11.4688 27.0336c3.072 7.3728 9.0112 13.5168 16.1792 16.7936l28.8768 13.312z" fill="#FF8939" p-id="21910"></path><path d="M635.6992 587.776c-6.144 0-12.4928-1.4336-18.2272-4.096l-28.672-13.312c-9.6256-4.5056-17.2032-12.288-21.2992-22.1184l-24.576-57.7536c-7.7824-18.2272-2.2528-39.1168 13.312-50.7904 33.1776-24.7808 77.2096-29.2864 114.688-11.8784 38.7072 18.0224 63.488 55.7056 64.7168 98.304 0.6144 19.2512-11.8784 36.6592-30.3104 42.1888l-57.1392 17.408c-4.096 1.4336-8.192 2.048-12.4928 2.048z m-73.728-105.472l24.576 57.7536c2.2528 5.12 6.144 9.216 11.0592 11.4688l28.672 13.312c5.12 2.2528 10.6496 2.6624 15.9744 1.2288l57.1392-17.408c9.6256-2.8672 16.1792-12.0832 15.9744-22.1184-1.024-34.816-21.2992-65.7408-52.8384-80.4864-30.72-14.336-66.56-10.6496-93.7984 9.6256-8.192 6.3488-10.8544 17.2032-6.7584 26.624z" fill="#1C1D21" p-id="21911"></path><path d="M679.7312 515.4816c-3.8912 0-7.7824-2.2528-9.4208-6.144-0.6144-1.6384-1.4336-3.072-2.2528-4.5056-2.6624-4.9152-1.024-11.264 4.096-13.9264 4.9152-2.6624 11.264-1.024 13.9264 4.096 1.2288 2.048 2.2528 4.3008 3.072 6.3488 2.2528 5.12-0.2048 11.264-5.3248 13.5168-1.4336 0.4096-2.8672 0.6144-4.096 0.6144zM592.896 487.0144c-3.4816 0-6.9632-1.8432-8.8064-5.12-2.8672-4.9152-1.2288-11.0592 3.6864-13.9264 11.0592-6.3488 23.3472-9.8304 36.0448-9.8304 10.4448 0 20.48 2.2528 30.1056 6.7584 5.12 2.4576 7.3728 8.3968 4.9152 13.5168-2.4576 5.12-8.3968 7.3728-13.5168 4.9152-6.7584-3.072-13.9264-4.7104-21.2992-4.7104-9.0112 0-17.8176 2.4576-25.8048 6.9632-1.8432 1.024-3.6864 1.4336-5.3248 1.4336z" fill="#FFA364" p-id="21912"></path><path d="M635.6992 587.776c-6.144 0-12.4928-1.4336-18.2272-4.096l-28.672-13.312c-9.6256-4.5056-17.2032-12.288-21.2992-22.1184l-11.4688-27.0336c-1.024-2.6624-1.024-5.5296 0-7.9872 1.024-2.6624 3.2768-4.5056 5.7344-5.5296 23.1424-8.8064 48.3328-7.7824 70.656 2.6624 22.9376 10.6496 40.5504 30.72 48.128 54.6816 0.8192 2.6624 0.6144 5.5296-0.6144 7.7824-1.2288 2.4576-3.4816 4.3008-6.144 5.12l-25.8048 7.9872c-3.8912 1.2288-7.9872 1.8432-12.288 1.8432z m-56.32-64.1024l6.9632 16.384c2.2528 5.12 6.144 9.216 11.0592 11.4688l28.672 13.312c5.12 2.2528 10.6496 2.6624 15.9744 1.2288l15.1552-4.7104c-6.9632-14.336-18.8416-26.0096-33.3824-32.768-13.9264-6.3488-29.4912-7.9872-44.4416-4.9152z" fill="#1C1D21" p-id="21913"></path><path d="M512 10.24C234.9056 10.24 10.24 234.9056 10.24 512s224.6656 501.76 501.76 501.76 501.76-224.6656 501.76-501.76S789.0944 10.24 512 10.24z m0 943.3088c-243.9168 0-441.5488-197.632-441.5488-441.5488S268.0832 70.4512 512 70.4512 953.5488 268.0832 953.5488 512 755.9168 953.5488 512 953.5488z" fill="#FF3E63" p-id="21914"></path><path d="M512 1024c-136.8064 0-265.4208-53.248-362.0864-149.9136C53.248 777.4208 0 648.8064 0 512S53.248 246.5792 149.9136 149.9136C246.5792 53.248 375.1936 0 512 0s265.4208 53.248 362.0864 149.9136C970.752 246.5792 1024 375.1936 1024 512s-53.248 265.4208-149.9136 362.0864C777.4208 970.752 648.8064 1024 512 1024z m0-1003.52C241.0496 20.48 20.48 241.0496 20.48 512s220.5696 491.52 491.52 491.52 491.52-220.5696 491.52-491.52S782.9504 20.48 512 20.48z m0 943.3088c-120.6272 0-234.0864-46.8992-319.488-132.3008-85.4016-85.4016-132.3008-198.8608-132.3008-319.488S107.3152 277.9136 192.512 192.512c85.4016-85.4016 198.8608-132.3008 319.488-132.3008s234.0864 47.104 319.488 132.3008c85.4016 85.4016 132.3008 198.8608 132.3008 319.488s-47.104 234.0864-132.3008 319.488c-85.4016 85.1968-198.8608 132.3008-319.488 132.3008z m0-883.0976C274.2272 80.6912 80.6912 274.2272 80.6912 512S274.2272 943.3088 512 943.3088 943.3088 749.7728 943.3088 512 749.7728 80.6912 512 80.6912z" fill="#1C1D21" p-id="21915"></path><path d="M512 10.24c-10.6496 0-21.2992 0.4096-31.744 1.024v105.8816c0 17.6128 14.336 31.744 31.744 31.744 17.6128 0 31.744-14.336 31.744-31.744V11.264c-10.4448-0.6144-21.0944-1.024-31.744-1.024z" fill="#FF3E63" p-id="21916"></path><path d="M512 159.1296c-23.1424 0-41.984-18.8416-41.984-41.984V11.264c0-5.3248 4.3008-9.8304 9.6256-10.24 22.7328-1.4336 42.1888-1.4336 64.9216 0 5.3248 0.4096 9.6256 4.9152 9.6256 10.24v105.8816c-0.2048 23.1424-19.0464 41.984-42.1888 41.984z m-21.504-138.24v96.0512c0 11.8784 9.6256 21.504 21.504 21.504s21.504-9.6256 21.504-21.504V20.8896c-14.7456-0.6144-28.2624-0.6144-43.008 0z" fill="#1C1D21" p-id="21917"></path><path d="M512 1013.76c10.6496 0 21.2992-0.4096 31.744-1.024v-105.8816c0-17.6128-14.336-31.744-31.744-31.744-17.6128 0-31.744 14.336-31.744 31.744v105.8816c10.4448 0.6144 21.0944 1.024 31.744 1.024z" fill="#FF3E63" p-id="21918"></path><path d="M512 1024c-10.4448 0-21.0944-0.4096-32.5632-1.024-5.3248-0.4096-9.6256-4.9152-9.6256-10.24v-105.8816c0-23.1424 18.8416-41.984 41.984-41.984s41.984 18.8416 41.984 41.984v105.8816c0 5.3248-4.3008 9.8304-9.6256 10.24-11.0592 0.6144-21.7088 1.024-32.1536 1.024z m-21.504-20.8896c14.7456 0.6144 28.4672 0.6144 43.2128 0v-96.0512c0-11.8784-9.6256-21.504-21.504-21.504s-21.504 9.6256-21.504 21.504v96.0512z" fill="#1C1D21" p-id="21919"></path><path d="M1013.76 512c0-10.6496-0.4096-21.2992-1.024-31.744h-105.8816c-17.6128 0-31.744 14.336-31.744 31.744 0 17.6128 14.336 31.744 31.744 31.744h105.8816c0.6144-10.4448 1.024-21.0944 1.024-31.744z" fill="#FF3E63" p-id="21920"></path><path d="M1012.736 553.984h-105.8816c-23.1424 0-41.984-18.8416-41.984-41.984s18.8416-41.984 41.984-41.984h105.8816c5.3248 0 9.8304 4.3008 10.24 9.6256 0.6144 11.0592 1.024 22.1184 1.024 32.5632s-0.4096 21.2992-1.024 32.5632c-0.4096 5.12-4.9152 9.216-10.24 9.216z m-105.8816-63.488c-11.8784 0-21.504 9.6256-21.504 21.504s9.6256 21.504 21.504 21.504h96.0512c0.4096-7.3728 0.4096-14.5408 0.4096-21.504s-0.2048-14.1312-0.4096-21.504h-96.0512z" fill="#1C1D21" p-id="21921"></path><path d="M10.24 512c0 10.6496 0.4096 21.2992 1.024 31.744h105.8816c17.6128 0 31.744-14.336 31.744-31.744 0-17.6128-14.336-31.744-31.744-31.744H11.264c-0.6144 10.4448-1.024 21.0944-1.024 31.744z" fill="#FF3E63" p-id="21922"></path><path d="M117.1456 553.984H11.264c-5.3248 0-9.8304-4.3008-10.24-9.6256-0.6144-11.0592-1.024-21.9136-1.024-32.3584 0-10.4448 0.4096-21.2992 1.024-32.5632 0.4096-5.3248 4.9152-9.6256 10.24-9.6256h105.8816c23.1424 0 41.984 18.8416 41.984 41.984s-18.8416 42.1888-41.984 42.1888z m-96.256-20.48h96.0512c11.8784 0 21.504-9.6256 21.504-21.504s-9.6256-21.504-21.504-21.504H20.8896c-0.4096 7.3728-0.4096 14.5408-0.4096 21.504s0.2048 14.1312 0.4096 21.504z" fill="#1C1D21" p-id="21923"></path><path d="M709.2224 740.9664c0-39.3216 31.9488-71.2704 71.2704-71.2704s71.2704 31.9488 71.2704 71.2704" fill="#FF3E63" p-id="21924"></path><path d="M889.6512 751.2064h-14.1312c-16.7936 0-31.744-11.264-36.4544-27.2384-7.5776-25.8048-31.5392-43.8272-58.5728-43.8272-27.0336 0-50.9952 18.0224-58.5728 43.8272-4.7104 15.9744-19.6608 27.2384-36.4544 27.2384h-14.336c-5.7344 0-10.24-4.5056-10.24-10.24s4.5056-10.24 10.24-10.24h14.336c7.7824 0 14.7456-5.12 16.7936-12.4928 10.0352-34.6112 42.1888-58.7776 78.2336-58.7776s68.1984 24.1664 78.2336 58.7776c2.048 7.3728 9.0112 12.4928 16.7936 12.4928h14.1312c5.7344 0 10.24 4.5056 10.24 10.24s-4.5056 10.24-10.24 10.24zM621.1584 751.2064h-20.6848c-5.7344 0-10.24-4.5056-10.24-10.24s4.5056-10.24 10.24-10.24h20.6848c5.7344 0 10.24 4.5056 10.24 10.24s-4.5056 10.24-10.24 10.24zM565.4528 751.2064h-7.3728c-5.7344 0-10.24-4.5056-10.24-10.24s4.5056-10.24 10.24-10.24h7.3728c5.7344 0 10.24 4.5056 10.24 10.24s-4.5056 10.24-10.24 10.24z" fill="#1C1D21" p-id="21925"></path></svg>