<?xml version="1.0" standalone="no"?><!DOCTYPE svg PUBLIC "-//W3C//DTD SVG 1.1//EN" "http://www.w3.org/Graphics/SVG/1.1/DTD/svg11.dtd"><svg t="1612106888919" class="icon" viewBox="0 0 1024 1024" version="1.1" xmlns="http://www.w3.org/2000/svg" p-id="23077" xmlns:xlink="http://www.w3.org/1999/xlink" width="200" height="200"><defs><style type="text/css"></style></defs><path d="M863.1 677.9c30.88 0 55.94 25.04 55.94 55.92 0 30.88-25.04 55.94-55.92 55.94-30.88 0-55.94-25.04-55.94-55.92v-0.02c0-30.88 25.04-55.92 55.92-55.92z" fill="#00EFD1" p-id="23078"></path><path d="M745.22 558.32c43.14 24.78 77.66 63.5 88.96 123.44 0 0-85.34 88.16-224.24 3.18l43.72-70.68a104.994 104.994 0 0 1 56.68-44.56l34.88-11.38z" fill="#00ACEA" p-id="23079"></path><path d="M745.22 558.32l-34.88 11.38a104.994 104.994 0 0 0-56.68 44.56l-43.72 70.68c-16.86-10.4-32.9-22.06-48-34.88-8.12-6.84-16.38-14.28-24.8-22.32-12.62-12.06-216.02 189.02-443.6 123.44L487 519.74s10.96-1.5 28.98-2.58c28.32-1.7 74.12-2.34 122.42 5.58 36.32 5.96 74.06 16.74 106.82 35.58z" fill="#FEDB41" p-id="23080"></path><path d="M638.5 522.08l-0.1 0.66c-48.3-7.92-94.1-7.28-122.42-5.58l-0.02-0.48c-347.16-54-453.28-197.54-453.28-197.54C-6.76 215 155.44 160.2 155.44 160.2 227.02 301.2 568 481.16 568 481.16l70.5 40.92z" fill="#00ACEA" p-id="23081"></path><path d="M638.5 522.08L568 481.16S227.02 301.2 155.44 160.2c-19.8-38.98-19-74.96 15.24-103.36 0 0 13.96-13.12 38.54-23.24l0.04 0.08 428.8 482.4c0.18 2.02 0.32 4.02 0.44 6z" fill="#00EFD1" p-id="23082"></path><path d="M638.06 516.08l-428.8-482.4-0.04-0.08C258.82 13.16 351.64 4.96 460 141.7c0 0 165.82 238.24 178.06 374.38z" fill="#00ACEA" p-id="23083"></path><path d="M863.1 801.76c8.58 0 17.06-1.62 25.04-4.8l93.42 200.62a11.994 11.994 0 0 0 15.74 6.34c6.06-2.58 8.92-9.58 6.38-15.66l-94.92-204.16c27.78-25.2 29.86-68.14 4.66-95.92a67.916 67.916 0 0 0-69.76-19.42c-12.64-52.22-43.7-92.84-92.44-120.84-28.16-16.2-62.26-28.08-101.46-35.36-14.04-138.02-173.1-367.94-179.9-377.72-0.14-0.2-0.3-0.4-0.44-0.6-49.52-62.44-101.14-101.84-153.5-117.06a166.72 166.72 0 0 0-111.28 5.32A150.608 150.608 0 0 0 162.78 47.8C122.82 81.12 126.34 121.82 139.24 153.6c-26 10.84-84.9 40.2-101.44 88.74-9.14 26.84-4.14 54.9 14.9 83.44 0.1 0.16 0.22 0.32 0.34 0.48 1.14 1.54 28.74 38.28 99.86 81.64 58.48 35.66 158.16 82.32 310.52 111.8L87.46 740.84a11.988 11.988 0 0 0 2.76 21.86 367.88 367.88 0 0 0 102.4 14.12c68.2 0 140.4-17.46 213.2-51.94 1-0.48 1.98-0.94 2.96-1.42l-51.26 74.94c-0.86 1.28-1.48 2.7-1.82 4.2l-42.44 192.86a11.992 11.992 0 0 0 9 14.38c6.46 1.48 12.9-2.54 14.38-9l0.06-0.24 41.94-190.58 73.74-107.82c0.5-0.74 0.92-1.54 1.26-2.38 29.04-16.58 56.8-35.34 83-56.1 2.82 2.6 5.66 5.16 8.48 7.64l-71.16 84.36a12.028 12.028 0 0 0-2.78 8.8l23.14 258.46a12 12 0 0 0 11.94 10.92c0.36 0 0.72-0.02 1.08-0.04 6.6-0.6 11.48-6.42 10.88-13.02L495.54 747.4l67.96-80.56a400.56 400.56 0 0 0 40.12 28.32l0.04 0.02c9.1 5.58 18.48 10.7 28.12 15.3l-56.72 55.26a12.028 12.028 0 0 0-3.32 11.3l50.14 216.02c1.5 6.46 7.94 10.48 14.4 8.98s10.48-7.94 8.98-14.4l-48.6-209.42 59.16-57.64c51.42 18.62 93.2 14.56 121.72 6.16 6.5-1.92 12.86-4.22 19.1-6.88-7.72 36.72 15.8 72.74 52.52 80.46 4.58 0.96 9.26 1.44 13.94 1.44z m43.94-67.94c0 24.26-19.66 43.94-43.92 43.94s-43.94-19.66-43.94-43.92 19.66-43.94 43.92-43.94c24.24 0.04 43.9 19.68 43.94 43.92z m-640-699.8c14.28 0.06 28.48 2.14 42.18 6.2 47.4 13.78 94.88 50.34 141.14 108.64 6.02 8.7 134.48 195.84 168.3 327.34L230.14 39.1a137.802 137.802 0 0 1 36.9-5.08zM178.34 66.08c0.18-0.14 0.36-0.32 0.52-0.46 8.24-7 17.4-12.88 27.2-17.46l383.9 431.88-15.94-9.24-0.42-0.24c-3.38-1.78-338.4-179.76-407.46-315.78-19.16-37.72-15.28-65.92 12.2-88.7zM72.46 312.18c-14.7-22.18-18.62-42.48-11.96-62.04 13.6-40.02 67.52-65.9 89.44-74.96 81.42 140.28 395.74 307.76 412.24 316.48l22.96 13.32c-22.16-1.2-44.36-1.2-66.5 0-0.28-0.06-0.54-0.14-0.84-0.18-176.28-27.42-288.06-78.44-350.8-116.42-65.34-39.54-92.42-73.48-94.54-76.2z m456.78 306.52c-0.52 0.46-53.68 46.6-133.7 84.5-67.26 31.86-166.48 63.54-270.34 43.28l365.74-215.14c4.04-0.48 13.14-1.44 25.76-2.2 40-2.52 80.16-0.7 119.76 5.44 26.44 4.08 52.32 11.28 77.06 21.46l-6.92 2.26a117.134 117.134 0 0 0-63.16 49.66l-37.32 60.32c-12.66-8.44-24.84-17.58-36.48-27.4-8-6.74-16.16-14.08-24.22-21.8a11.988 11.988 0 0 0-16.18-0.38z m240.34 85.34c-44.6 12.76-92.64 4.94-142.96-23.24l37.26-60.22a93.09 93.09 0 0 1 50.2-39.46l29.66-9.68c41.08 25 67.08 60.58 77.32 106a144.794 144.794 0 0 1-51.48 26.6z" fill="#083863" p-id="23084"></path></svg>