<?xml version="1.0" standalone="no"?><!DOCTYPE svg PUBLIC "-//W3C//DTD SVG 1.1//EN" "http://www.w3.org/Graphics/SVG/1.1/DTD/svg11.dtd">
<svg t="1612106641112" class="icon" viewBox="0 0 1024 1024" version="1.1" xmlns="http://www.w3.org/2000/svg" p-id="14409" xmlns:xlink="http://www.w3.org/1999/xlink" width="50px" height="50px"><defs><style type="text/css"></style></defs><path d="M512 533.333333a243.2 243.2 0 0 1 226.872889 155.534223l62.293333 161.251555a18.062222 18.062222 0 0 1-16.810666 24.547556H239.644444a18.033778 18.033778 0 0 1-16.810666-24.547556l62.293333-161.251555A243.2 243.2 0 0 1 512 533.333333z m0 85.333334a157.866667 157.866667 0 0 0-145.038222 95.488l-2.218667 5.489777-26.965333 69.688889h348.444444l-26.965333-69.688889a157.866667 157.866667 0 0 0-141.368889-100.864L512 618.666667z m0-469.333334a170.666667 170.666667 0 0 1 162.247111 223.744l88.263111 35.299556 3.043556 1.365333a42.666667 42.666667 0 0 1-34.730667 77.880889l-103.822222-41.528889A170.040889 170.040889 0 0 1 512 490.666667a170.040889 170.040889 0 0 1-115.000889-44.572445l-103.822222 41.528889a42.666667 42.666667 0 0 1-34.730667-77.880889l3.043556-1.365333 88.263111-35.299556A170.666667 170.666667 0 0 1 512 149.333333z m0 85.333334a85.333333 85.333333 0 1 0 0 170.666666 85.333333 85.333333 0 0 0 0-170.666666z" fill="#2D96D3" p-id="14410"></path></svg>