<?xml version="1.0" standalone="no"?><!DOCTYPE svg PUBLIC "-//W3C//DTD SVG 1.1//EN" "http://www.w3.org/Graphics/SVG/1.1/DTD/svg11.dtd">
<svg t="1612106613648" class="icon" viewBox="0 0 1024 1024" version="1.1" xmlns="http://www.w3.org/2000/svg" p-id="11680" xmlns:xlink="http://www.w3.org/1999/xlink" width="50px" height="50px"><defs><style type="text/css"></style></defs><path d="M650.56 615.36l-10.56-3.52a75.52 75.52 0 0 0 51.84-42.56 24 24 0 0 0 0-20.16l-3.84-7.04a56.64 56.64 0 0 1-8.32-34.56v-15.04c2.24-50.88 6.4-157.12-45.12-208.96A96 96 0 0 0 568.32 256c-19.2-10.88-70.08-30.4-144.96 13.44-69.12 43.2-73.6 144.64-76.48 211.52a333.44 333.44 0 0 1-4.48 52.16 24.32 24.32 0 0 0-9.6 14.08 43.84 43.84 0 0 0 7.36 34.24 87.68 87.68 0 0 0 43.2 32l-12.8 4.8c-46.72 17.28-117.76 43.52-121.92 141.12a24 24 0 0 0 24 24.96h480a24 24 0 0 0 24-25.28c-6.08-95.04-78.4-124.16-126.08-143.68zM299.84 736c11.2-44.8 46.72-58.24 87.36-72.96a128 128 0 0 0 74.24-48.64 24 24 0 0 0-17.28-35.2 128 128 0 0 1-60.16-21.44 202.88 202.88 0 0 0 11.2-75.52c2.56-60.48 6.4-143.36 53.44-172.8 64-37.12 96-12.48 98.24-11.84a22.4 22.4 0 0 0 16.32 5.44 49.28 49.28 0 0 1 38.72 14.08c36.8 36.8 32 135.68 32 173.12v18.88a99.2 99.2 0 0 0 10.88 49.6 110.4 110.4 0 0 1-44.16 13.12A198.4 198.4 0 0 0 576 576a24 24 0 0 0-15.36 32c11.2 26.88 40.64 38.72 71.68 51.52 46.72 18.88 80 35.2 91.2 74.56z" fill="#51A0F2" p-id="11681"></path><path d="M512 8A504 504 0 1 0 1016 512 504.64 504.64 0 0 0 512 8z m0 960A456 456 0 1 1 968 512 456.64 456.64 0 0 1 512 968z" fill="#51A0F2" p-id="11682"></path></svg>