<?xml version="1.0" standalone="no"?><!DOCTYPE svg PUBLIC "-//W3C//DTD SVG 1.1//EN" "http://www.w3.org/Graphics/SVG/1.1/DTD/svg11.dtd"><svg t="1612253980057" class="icon" viewBox="0 0 1237 1024" version="1.1" xmlns="http://www.w3.org/2000/svg" p-id="4217" xmlns:xlink="http://www.w3.org/1999/xlink" width="50px" height="50px"><defs><style type="text/css"></style></defs><path d="M170.112 862.677333a18.218667 18.218667 0 1 0-18.218667-18.005333 17.962667 17.962667 0 0 0 18.218667 18.005333z" fill="#000000" opacity=".6" p-id="4218"></path><path d="M619.52 722.261333a216.192 216.192 0 0 1-185.685333-106.496 142.464 142.464 0 0 0-121.984-74.410666H63.616a34.346667 34.346667 0 0 1 0-68.266667h248.234667a210.474667 210.474667 0 0 1 182.058666 108.330667 146.773333 146.773333 0 0 0 253.269334 0 210.474667 210.474667 0 0 1 182.058666-108.330667l256.896-4.565333a34.346667 34.346667 0 0 1 0 68.266666l-258.517333 4.352a142.464 142.464 0 0 0-122.624 74.410667 216.192 216.192 0 0 1-185.472 106.709333z" fill="#1C8BE4" p-id="4219"></path><path d="M215.168 765.482667a36.181333 36.181333 0 1 0 0.426667-72.362667 36.181333 36.181333 0 0 0-0.426667 72.362667zM316.885333 836.266667a36.181333 36.181333 0 1 0 72.362667 0.426666 36.181333 36.181333 0 0 0-72.362667-0.426666z m228.693334 45.056a36.181333 36.181333 0 1 0 0-72.362667 36.181333 36.181333 0 0 0 0 72.362667z m120.576 108.544a36.181333 36.181333 0 1 0 0-72.362667 36.181333 36.181333 0 0 0 0 72.362667z m194.56-192.042667a36.181333 36.181333 0 1 0-36.181334-35.498667c0 19.968 16.213333 36.181333 36.181334 36.181334v-0.682667z m136.533333 128.085333a36.181333 36.181333 0 1 0 0-72.362666 36.181333 36.181333 0 0 0 0 72.362666z m-132.650667-75.306666a18.218667 18.218667 0 1 0 17.962667 17.962666 17.962667 17.962667 0 0 0-17.962667-17.962666z m126.506667-80.554667a18.218667 18.218667 0 1 0 0-36.394667 18.218667 18.218667 0 0 0 0 36.394667z m-270.762667 96.256a18.218667 18.218667 0 0 0 12.842667-30.976 17.962667 17.962667 0 0 0-12.842667-5.205333 17.962667 17.962667 0 0 0-18.005333 17.962666c0 9.984 8.021333 18.090667 18.005333 18.218667z m-163.413333 61.013333a18.218667 18.218667 0 1 0 0 36.394667 18.218667 18.218667 0 0 0 0-36.437333z m-127.658667 48a18.218667 18.218667 0 1 0 4.096-36.181333 18.218667 18.218667 0 0 0-4.096 36.181333zM325.973333 772.992a18.218667 18.218667 0 1 0-18.218666-18.176 18.432 18.432 0 0 0 18.218666 18.176z" fill="#FFA15E" opacity=".6" p-id="4220"></path><path d="M619.52 615.765333a108.544 108.544 0 0 0 108.544-108.544A1501.866667 1501.866667 0 0 0 619.52 0.682667c82.133333 278.997333-108.330667 393.429333-108.330667 506.538666a108.544 108.544 0 0 0 108.330667 108.544z" fill="#1C8BE4" p-id="4221"></path></svg>